<svg xmlns="http://www.w3.org/2000/svg" viewBox="0 0 1600 900" role="img">
<defs><linearGradient id="d" x1="0" y1="0" x2="1" y2="1">
<stop offset="0" stop-color="#0c1a2e"/><stop offset="1" stop-color="#1c3453"/></linearGradient></defs>
<rect width="1600" height="900" fill="url(#d)"/>
<g opacity="0.6"><path d="M900 900 Q1100 300 1300 900 Z" fill="#c8322b" opacity="0.20"/>
<path d="M980 900 Q1100 420 1220 900 Z" fill="#e8a86f" opacity="0.28"/></g>
<g stroke="#ffffff" stroke-width="1" opacity="0.05">
<line x1="0" y1="0" x2="1600" y2="0"/><line x1="0" y1="26" x2="1600" y2="26"/><line x1="0" y1="52" x2="1600" y2="52"/><line x1="0" y1="78" x2="1600" y2="78"/><line x1="0" y1="104" x2="1600" y2="104"/><line x1="0" y1="130" x2="1600" y2="130"/><line x1="0" y1="156" x2="1600" y2="156"/><line x1="0" y1="182" x2="1600" y2="182"/><line x1="0" y1="208" x2="1600" y2="208"/><line x1="0" y1="234" x2="1600" y2="234"/><line x1="0" y1="260" x2="1600" y2="260"/><line x1="0" y1="286" x2="1600" y2="286"/><line x1="0" y1="312" x2="1600" y2="312"/><line x1="0" y1="338" x2="1600" y2="338"/><line x1="0" y1="364" x2="1600" y2="364"/><line x1="0" y1="390" x2="1600" y2="390"/><line x1="0" y1="416" x2="1600" y2="416"/><line x1="0" y1="442" x2="1600" y2="442"/><line x1="0" y1="468" x2="1600" y2="468"/><line x1="0" y1="494" x2="1600" y2="494"/><line x1="0" y1="520" x2="1600" y2="520"/><line x1="0" y1="546" x2="1600" y2="546"/><line x1="0" y1="572" x2="1600" y2="572"/><line x1="0" y1="598" x2="1600" y2="598"/><line x1="0" y1="624" x2="1600" y2="624"/><line x1="0" y1="650" x2="1600" y2="650"/><line x1="0" y1="676" x2="1600" y2="676"/><line x1="0" y1="702" x2="1600" y2="702"/><line x1="0" y1="728" x2="1600" y2="728"/><line x1="0" y1="754" x2="1600" y2="754"/><line x1="0" y1="780" x2="1600" y2="780"/><line x1="0" y1="806" x2="1600" y2="806"/><line x1="0" y1="832" x2="1600" y2="832"/><line x1="0" y1="858" x2="1600" y2="858"/><line x1="0" y1="884" x2="1600" y2="884"/></g>
</svg>