<svg xmlns="http://www.w3.org/2000/svg" viewBox="0 0 800 600" role="img">
<defs>
<radialGradient id="bg" cx="50%" cy="38%" r="80%">
<stop offset="0%" stop-color="#f6f7f9"/><stop offset="100%" stop-color="#eceef2"/>
</radialGradient>
<linearGradient id="heat" x1="0" y1="0" x2="1" y2="0">
<stop offset="0" stop-color="#98a2b3"/><stop offset="0.55" stop-color="#c46a3a"/><stop offset="1" stop-color="#c8322b"/>
</linearGradient>
</defs>
<rect width="800" height="600" fill="url(#bg)"/>
<g transform="translate(0,0)"><path d="M200 210 q60 -18 120 0 t120 0 t120 0 t120 0" fill="none" stroke="#c2c9d4" stroke-width="10" opacity="0.9" stroke-linecap="round"/><path d="M200 240 q60 -18 120 0 t120 0 t120 0 t120 0" fill="none" stroke="#c2c9d4" stroke-width="10" opacity="0.8200000000000001" stroke-linecap="round"/><path d="M200 270 q60 -18 120 0 t120 0 t120 0 t120 0" fill="none" stroke="#c2c9d4" stroke-width="10" opacity="0.74" stroke-linecap="round"/><path d="M200 300 q60 -18 120 0 t120 0 t120 0 t120 0" fill="none" stroke="#c2c9d4" stroke-width="10" opacity="0.66" stroke-linecap="round"/><path d="M200 330 q60 -18 120 0 t120 0 t120 0 t120 0" fill="none" stroke="#c2c9d4" stroke-width="10" opacity="0.5800000000000001" stroke-linecap="round"/><path d="M200 360 q60 -18 120 0 t120 0 t120 0 t120 0" fill="none" stroke="#c2c9d4" stroke-width="10" opacity="0.5" stroke-linecap="round"/><path d="M200 390 q60 -18 120 0 t120 0 t120 0 t120 0" fill="none" stroke="#c2c9d4" stroke-width="10" opacity="0.42000000000000004" stroke-linecap="round"/></g>
<rect x="0" y="594" width="800" height="6" fill="url(#heat)"/>
</svg>