<svg xmlns="http://www.w3.org/2000/svg" viewBox="0 0 800 600" role="img">
<defs>
<radialGradient id="bg" cx="50%" cy="38%" r="80%">
<stop offset="0%" stop-color="#f6f7f9"/><stop offset="100%" stop-color="#eceef2"/>
</radialGradient>
<linearGradient id="heat" x1="0" y1="0" x2="1" y2="0">
<stop offset="0" stop-color="#98a2b3"/><stop offset="0.55" stop-color="#c46a3a"/><stop offset="1" stop-color="#c8322b"/>
</linearGradient>
</defs>
<rect width="800" height="600" fill="url(#bg)"/>
<g transform="translate(0,0)"><rect x="180" y="250" width="72" height="34" rx="3" fill="#b98b5e" opacity="0.85" stroke="#00000012"/><rect x="260" y="250" width="72" height="34" rx="3" fill="#b98b5e" opacity="0.85" stroke="#00000012"/><rect x="340" y="250" width="72" height="34" rx="3" fill="#b98b5e" opacity="0.85" stroke="#00000012"/><rect x="420" y="250" width="72" height="34" rx="3" fill="#b98b5e" opacity="0.85" stroke="#00000012"/><rect x="500" y="250" width="72" height="34" rx="3" fill="#b98b5e" opacity="0.85" stroke="#00000012"/><rect x="580" y="250" width="72" height="34" rx="3" fill="#b98b5e" opacity="0.85" stroke="#00000012"/><rect x="210" y="292" width="72" height="34" rx="3" fill="#b98b5e" opacity="0.79" stroke="#00000012"/><rect x="290" y="292" width="72" height="34" rx="3" fill="#b98b5e" opacity="0.79" stroke="#00000012"/><rect x="370" y="292" width="72" height="34" rx="3" fill="#b98b5e" opacity="0.79" stroke="#00000012"/><rect x="450" y="292" width="72" height="34" rx="3" fill="#b98b5e" opacity="0.79" stroke="#00000012"/><rect x="530" y="292" width="72" height="34" rx="3" fill="#b98b5e" opacity="0.79" stroke="#00000012"/><rect x="180" y="334" width="72" height="34" rx="3" fill="#b98b5e" opacity="0.73" stroke="#00000012"/><rect x="260" y="334" width="72" height="34" rx="3" fill="#b98b5e" opacity="0.73" stroke="#00000012"/><rect x="340" y="334" width="72" height="34" rx="3" fill="#b98b5e" opacity="0.73" stroke="#00000012"/><rect x="420" y="334" width="72" height="34" rx="3" fill="#b98b5e" opacity="0.73" stroke="#00000012"/><rect x="500" y="334" width="72" height="34" rx="3" fill="#b98b5e" opacity="0.73" stroke="#00000012"/><rect x="580" y="334" width="72" height="34" rx="3" fill="#b98b5e" opacity="0.73" stroke="#00000012"/><rect x="210" y="376" width="72" height="34" rx="3" fill="#b98b5e" opacity="0.6699999999999999" stroke="#00000012"/><rect x="290" y="376" width="72" height="34" rx="3" fill="#b98b5e" opacity="0.6699999999999999" stroke="#00000012"/><rect x="370" y="376" width="72" height="34" rx="3" fill="#b98b5e" opacity="0.6699999999999999" stroke="#00000012"/><rect x="450" y="376" width="72" height="34" rx="3" fill="#b98b5e" opacity="0.6699999999999999" stroke="#00000012"/><rect x="530" y="376" width="72" height="34" rx="3" fill="#b98b5e" opacity="0.6699999999999999" stroke="#00000012"/><rect x="180" y="418" width="72" height="34" rx="3" fill="#b98b5e" opacity="0.61" stroke="#00000012"/><rect x="260" y="418" width="72" height="34" rx="3" fill="#b98b5e" opacity="0.61" stroke="#00000012"/><rect x="340" y="418" width="72" height="34" rx="3" fill="#b98b5e" opacity="0.61" stroke="#00000012"/><rect x="420" y="418" width="72" height="34" rx="3" fill="#b98b5e" opacity="0.61" stroke="#00000012"/><rect x="500" y="418" width="72" height="34" rx="3" fill="#b98b5e" opacity="0.61" stroke="#00000012"/><rect x="580" y="418" width="72" height="34" rx="3" fill="#b98b5e" opacity="0.61" stroke="#00000012"/></g>
<rect x="0" y="594" width="800" height="6" fill="url(#heat)"/>
</svg>