<svg xmlns="http://www.w3.org/2000/svg" viewBox="0 0 1200 630" role="img">
<defs><linearGradient id="g" x1="0" y1="0" x2="1" y2="1">
<stop offset="0" stop-color="#0c1a2e"/><stop offset="1" stop-color="#1c3453"/></linearGradient></defs>
<rect width="1200" height="630" fill="url(#g)"/>
<g stroke="#ffffff" opacity="0.06"><line x1="820" y1="0" x2="1200" y2="0" stroke-width="1"/><line x1="820" y1="22" x2="1200" y2="22" stroke-width="1"/><line x1="820" y1="44" x2="1200" y2="44" stroke-width="1"/><line x1="820" y1="66" x2="1200" y2="66" stroke-width="1"/><line x1="820" y1="88" x2="1200" y2="88" stroke-width="1"/><line x1="820" y1="110" x2="1200" y2="110" stroke-width="1"/><line x1="820" y1="132" x2="1200" y2="132" stroke-width="1"/><line x1="820" y1="154" x2="1200" y2="154" stroke-width="1"/><line x1="820" y1="176" x2="1200" y2="176" stroke-width="1"/><line x1="820" y1="198" x2="1200" y2="198" stroke-width="1"/><line x1="820" y1="220" x2="1200" y2="220" stroke-width="1"/><line x1="820" y1="242" x2="1200" y2="242" stroke-width="1"/><line x1="820" y1="264" x2="1200" y2="264" stroke-width="1"/><line x1="820" y1="286" x2="1200" y2="286" stroke-width="1"/><line x1="820" y1="308" x2="1200" y2="308" stroke-width="1"/><line x1="820" y1="330" x2="1200" y2="330" stroke-width="1"/><line x1="820" y1="352" x2="1200" y2="352" stroke-width="1"/><line x1="820" y1="374" x2="1200" y2="374" stroke-width="1"/><line x1="820" y1="396" x2="1200" y2="396" stroke-width="1"/><line x1="820" y1="418" x2="1200" y2="418" stroke-width="1"/><line x1="820" y1="440" x2="1200" y2="440" stroke-width="1"/><line x1="820" y1="462" x2="1200" y2="462" stroke-width="1"/><line x1="820" y1="484" x2="1200" y2="484" stroke-width="1"/><line x1="820" y1="506" x2="1200" y2="506" stroke-width="1"/><line x1="820" y1="528" x2="1200" y2="528" stroke-width="1"/><line x1="820" y1="550" x2="1200" y2="550" stroke-width="1"/><line x1="820" y1="572" x2="1200" y2="572" stroke-width="1"/><line x1="820" y1="594" x2="1200" y2="594" stroke-width="1"/><line x1="820" y1="616" x2="1200" y2="616" stroke-width="1"/></g>
<rect x="90" y="250" width="60" height="6" fill="#c8322b"/>
<text x="90" y="300" font-family="Arial,Helvetica,sans-serif" font-size="66" font-weight="700" fill="#ffffff">Hari Enterprises</text>
<text x="90" y="360" font-family="Arial,Helvetica,sans-serif" font-size="30" fill="#c2c9d4">Refractory Material Sourcing &amp; Supply</text>
<text x="90" y="404" font-family="Arial,Helvetica,sans-serif" font-size="30" fill="#c2c9d4">Ahmedabad, Gujarat · Since 2005</text>
<rect x="0" y="620" width="1200" height="10" fill="url(#g)"/>
<rect x="0" y="622" width="1200" height="8" fill="#c8322b"/>
</svg>